<svg width="255" height="255" viewBox="0 0 255 255" fill="none" xmlns="http://www.w3.org/2000/svg">
<g clip-path="url(#clip0_3_1285)">
<rect width="255" height="255" rx="33" fill="#D21E48"/>
<path d="M241 23C241 23 241 47.42 241 60C210.31 60 179.62 60 148 60C148 77.82 148 95.6402 148 114C151.3 112.02 154.6 110.04 158 108C172.8 100.673 185.727 99.6703 202 100C202 93.4002 202 86.8002 202 80.0002C214.54 80.0002 227.08 80.0002 240 80.0002C240 129.83 240 179.66 240 231C214.956 231 214.956 231 209.012 226.492C202.634 218.703 201.552 210.814 201.659 200.972C201.659 199.908 201.659 198.844 201.658 197.747C201.66 194.257 201.683 190.767 201.707 187.277C201.713 184.846 201.717 182.415 201.72 179.985C201.731 173.608 201.761 167.231 201.794 160.854C201.825 154.338 201.838 147.822 201.854 141.307C201.886 128.538 201.936 115.769 202 103C198.466 103.293 194.934 103.597 191.402 103.903C189.908 104.027 189.908 104.027 188.385 104.153C181.483 104.758 175.189 105.847 168.688 108.313C167.861 108.596 167.034 108.879 166.182 109.17C161.079 110.981 156.476 113.27 151.823 116.036C150 117 150 117 148 117C148 154.62 148 192.24 148 231C123.96 231 123.96 231 115.793 224.148C107.506 214.994 107.562 204.061 107.659 192.257C107.66 190.807 107.66 189.357 107.658 187.907C107.657 184.005 107.675 180.103 107.696 176.201C107.715 172.111 107.716 168.02 107.72 163.929C107.729 156.198 107.754 148.468 107.784 140.737C107.824 130.279 107.84 119.822 107.857 109.364C107.886 92.9094 107.945 76.4548 108 60C77.31 60 46.62 60 15 60C15 47.79 15 35.58 15 23C77.37 23 241 23 241 23Z" fill="#FCF4EC"/>
</g>
<defs>
<clipPath id="clip0_3_1285">
<rect width="255" height="255" fill="white"/>
</clipPath>
</defs>
</svg>
