<svg width="761" height="255" viewBox="0 0 761 255" fill="none" xmlns="http://www.w3.org/2000/svg">
<g clip-path="url(#clip0_2_2)">
<path d="M574 1.00002C574.33 42.25 574.66 83.5 575 126C584.749 112.083 584.749 112.083 594.438 98.125C599.813 90.6626 604.769 85.1975 614 83C618.785 82.6011 623.545 82.6505 628.344 82.707C629.723 82.7127 631.101 82.7169 632.48 82.7199C636.084 82.7313 639.687 82.7607 643.29 82.794C646.978 82.8249 650.665 82.8384 654.352 82.8535C661.568 82.8856 668.784 82.9367 676 83C676.006 84.4656 676.006 84.4656 676.011 85.9607C676.049 95.2415 676.107 104.522 676.184 113.802C676.223 118.572 676.256 123.341 676.271 128.111C676.287 132.727 676.321 137.344 676.369 141.96C676.383 143.707 676.391 145.455 676.392 147.202C676.407 161.983 677.377 178.379 686 191C690.3 195.195 694.229 197.289 700.25 197.375C707.432 197.212 711.75 195.302 716.75 190.188C722.944 180.542 724.118 166.907 724.206 155.77C724.215 154.979 724.225 154.188 724.236 153.373C724.267 150.781 724.292 148.189 724.317 145.598C724.337 143.792 724.358 141.986 724.38 140.18C724.435 135.443 724.484 130.707 724.533 125.971C724.583 121.131 724.638 116.291 724.694 111.451C724.801 101.968 724.902 92.4838 725 83C729.645 82.9506 734.29 82.9143 738.935 82.8902C740.515 82.8801 742.095 82.8664 743.675 82.8491C745.946 82.8249 748.217 82.8135 750.489 82.8047C751.195 82.7944 751.901 82.7841 752.629 82.7734C756.322 82.7726 757.839 82.8928 761 85C761.368 88.0628 761.368 88.0628 761.357 92.0574C761.359 92.7846 761.361 93.5118 761.363 94.2611C761.366 96.6782 761.347 99.0947 761.328 101.512C761.325 103.199 761.323 104.887 761.323 106.574C761.318 110.125 761.304 113.675 761.282 117.225C761.254 121.734 761.242 126.244 761.238 130.753C761.233 135.089 761.218 139.425 761.203 143.762C761.202 144.571 761.2 145.381 761.198 146.215C761.119 172.606 759.871 199.546 740.688 219.813C726.99 232.748 712.03 234.887 693.867 234.383C687.373 234.057 681.802 233.022 676 230C675.116 229.541 674.232 229.082 673.321 228.609C670.786 227.181 668.394 225.653 666 224C665.387 223.584 664.773 223.167 664.141 222.738C650.032 211.962 643.871 193.185 641.484 176.36C640.68 168.916 640.763 161.413 640.684 153.934C640.663 152.287 640.642 150.641 640.621 148.995C640.566 144.689 640.516 140.384 640.468 136.078C640.418 131.674 640.362 127.27 640.307 122.865C640.2 114.244 640.098 105.622 640 97C637.789 99.8219 635.582 102.647 633.375 105.473C632.758 106.26 632.14 107.048 631.504 107.86C626.484 114.295 621.762 120.904 617.102 127.602C613.039 133.41 608.793 139.085 604.543 144.758C603.98 145.514 603.417 146.271 602.836 147.051C602.337 147.718 601.837 148.384 601.322 149.072C600.012 150.983 598.984 152.905 598 155C605.676 165.519 613.432 175.945 621.532 186.141C624.377 189.743 627.186 193.374 630 197C634.345 202.591 638.694 208.178 643.063 213.75C643.491 214.298 643.92 214.846 644.362 215.41C646.823 218.548 646.823 218.548 649.405 221.587C652.041 224.575 652.973 225.718 653.375 229.813C653 233 653 233 652 234C647.711 234.268 643.416 234.271 639.12 234.295C636.97 234.312 634.823 234.356 632.674 234.4C623.158 234.509 616.905 233.67 609.688 227.125C596.822 213.392 585.913 197.278 575 182C574.67 199.16 574.34 216.32 574 234C562.12 234 550.24 234 538 234C537.931 205.845 537.877 177.69 537.845 149.535C537.829 136.462 537.808 123.389 537.774 110.316C537.744 98.9216 537.725 87.5273 537.718 76.1329C537.714 70.0997 537.705 64.0666 537.683 58.0334C537.663 52.3535 537.656 46.6739 537.661 40.994C537.66 38.9107 537.654 36.8274 537.643 34.7441C537.628 31.896 537.631 29.0484 537.64 26.2002C537.631 25.3792 537.622 24.5581 537.613 23.7122C537.661 17.569 538.67 11.9232 542.614 6.97658C543.174 6.53056 543.735 6.08455 544.313 5.62502C544.866 5.16353 545.419 4.70205 545.989 4.22658C554.973 -1.25148 562.948 1.00002 574 1.00002Z" fill="#FCF2EB"/>
<path d="M226 25.9998C226 25.9998 226 50.4199 226 62.9999C195.31 62.9999 164.62 62.9999 133 62.9999C133 80.8199 133 98.64 133 117C136.3 115.02 139.6 113.04 143 111C157.8 103.673 170.727 102.67 187 103C187 96.4 187 89.8 187 83C199.54 83 212.08 83 225 83C225 132.83 225 182.66 225 234C199.956 234 199.956 234 194.012 229.492C187.634 221.703 186.552 213.814 186.659 203.972C186.659 202.908 186.659 201.843 186.658 200.747C186.66 197.257 186.683 193.767 186.707 190.277C186.713 187.846 186.717 185.415 186.72 182.984C186.731 176.607 186.761 170.231 186.794 163.854C186.825 157.338 186.838 150.822 186.854 144.307C186.886 131.538 186.936 118.769 187 106C183.466 106.293 179.934 106.597 176.402 106.903C174.908 107.027 174.908 107.027 173.385 107.153C166.483 107.758 160.189 108.847 153.688 111.312C152.861 111.595 152.034 111.878 151.182 112.17C146.079 113.98 141.476 116.27 136.823 119.036C135 120 135 120 133 120C133 157.62 133 195.24 133 234C108.96 234 108.96 234 100.793 227.148C92.5058 217.994 92.5617 207.061 92.6594 195.257C92.6603 193.807 92.6598 192.357 92.6581 190.907C92.6572 187.005 92.6748 183.103 92.6958 179.201C92.7147 175.11 92.7163 171.02 92.7199 166.929C92.7292 159.198 92.7538 151.467 92.7839 143.737C92.8239 133.279 92.84 122.822 92.8575 112.364C92.8856 95.9092 92.9454 79.4546 93 62.9999C62.31 62.9999 31.62 62.9999 0 62.9999C0 50.7899 0 38.5798 0 25.9998C62.37 25.9998 226 25.9998 226 25.9998Z" fill="#FCF4EC"/>
<path d="M236 83.5941C236 83.5941 240.422 83.5291 242.633 83.492C245.468 83.4506 248.302 83.4345 251.137 83.4274C252.52 83.4183 253.903 83.3974 255.286 83.3666C264.445 83.1734 271.832 83.7069 279 90.0001C285.677 97.9471 289.343 108.093 293.52 117.488C295.611 122.177 297.809 126.794 300.125 131.375C300.441 132.001 300.758 132.628 301.084 133.273C302.053 135.183 303.026 137.092 304 139C305.505 141.956 307.004 144.915 308.5 147.875C308.851 148.56 309.202 149.245 309.563 149.951C312 154.774 312 154.774 312 157C312.66 157 313.32 157 314 157C314.219 156.243 314.438 155.487 314.664 154.707C316.534 149.518 318.961 144.643 321.375 139.688C322.459 137.451 323.542 135.214 324.625 132.977C325.182 131.828 325.739 130.68 326.313 129.497C327.974 126.055 329.615 122.604 331.25 119.149C331.774 118.044 332.298 116.94 332.838 115.802C333.834 113.703 334.826 111.603 335.814 109.501C344.633 90.9776 344.632 90.9776 350.687 87.4376C351.434 86.9825 352.18 86.5275 352.949 86.0587C358.817 83.0296 365.117 83.8159 371.562 83.8126C372.82 83.8003 374.077 83.7881 375.373 83.7755C377.17 83.7726 377.17 83.7726 379.004 83.7696C380.105 83.7655 381.207 83.7614 382.342 83.7572C385 84.0001 385 84.0001 387 86.0001C387.74 92.1769 385.962 95.7702 383 100.938C382.078 102.617 381.16 104.298 380.246 105.981C379.733 106.922 379.219 107.864 378.691 108.834C375.357 115.076 372.219 121.417 369.062 127.75C368.717 128.441 368.372 129.133 368.016 129.845C363.181 139.529 358.446 149.256 353.803 159.033C347.447 172.405 340.791 185.611 333.835 198.681C331.503 203.082 329.237 207.51 327.031 211.977C326.536 212.979 326.041 213.981 325.531 215.014C324.571 216.967 323.616 218.922 322.666 220.88C322.231 221.766 321.796 222.651 321.348 223.563C320.966 224.348 320.585 225.133 320.192 225.941C318.981 228.033 317.861 229.464 316 231C313.125 231.688 313.125 231.688 310 231C308.773 229.514 308.773 229.514 307.611 227.545C307.18 226.816 306.749 226.087 306.305 225.336C304.144 221.467 302.103 217.546 300.106 213.59C299.645 212.686 299.185 211.782 298.71 210.85C297.199 207.881 295.693 204.909 294.188 201.938C293.123 199.843 292.058 197.748 290.992 195.654C289.335 192.397 287.679 189.139 286.023 185.881C282.242 178.438 278.448 171.002 274.645 163.57C265.562 145.825 256.49 128.074 247.563 110.25C247.055 109.24 247.055 109.24 246.538 108.209C245.608 106.354 244.68 104.498 243.754 102.641C243.242 101.615 242.729 100.589 242.201 99.5323C241 97.0001 240 94.0001 240 94.0001L236 83.5941Z" fill="#FCF3EC"/>
<path fill-rule="evenodd" clip-rule="evenodd" d="M481.965 81.7974L480 81C456.489 71.383 429.475 76.1717 407.86 87.9326C391.531 97.306 380.611 114.908 375.438 132.688C371.728 148.293 371.425 171.254 379.457 185.41L381 188C385.317 195.978 389.684 203.31 395.532 210.305L397 212C393.964 212 391.889 212 389.887 212.381C385.566 213.203 381.582 215.8 369 224C352.678 234.665 336.578 244.905 317 248C303.377 248.924 292.68 246.166 281.86 237.559L280 236C278.663 234.88 277.33 233.755 276 232.625L273 230L272 233C280.563 241.973 288.646 248.986 301 252C324.275 254.468 341.805 244.797 361 233C362.168 232.275 363.332 231.545 364.496 230.816C373.107 225.418 381.673 220.048 391.375 216.781L394 216L397.813 214.813C401.279 215.016 401.836 215.377 404.438 217.438C416.751 227.651 431.464 232.021 447.235 232.34L450.563 232.375C453.684 232.418 456.783 232.4 459.903 232.286C479.245 230.501 497.634 220.273 510.043 205.492L512 203C521.481 191.038 526.844 176.655 528.232 161.46C529.504 139.935 524.64 118.974 510.235 102.363L508 100C500.306 91.833 492.346 86.1393 481.965 81.7974ZM452.881 114.63L450.75 114.625C444.751 114.611 439.89 115.598 434.473 118.227C424.26 124.153 417.949 132.017 414.25 143.285C411.267 155.033 413.091 166.489 419 177C424.904 185.217 432.81 192.22 443 194C456.414 195.051 466.07 192.818 477 185C483.288 178.852 487.921 169.801 489 161C489.72 148.821 488.285 137.709 480.328 127.949C472.758 120.127 463.893 114.888 452.881 114.63Z" fill="#FCF3EC"/>
</g>
<defs>
<clipPath id="clip0_2_2">
<rect width="761" height="255" fill="white"/>
</clipPath>
</defs>
</svg>
